<?xml version="1.0" encoding="UTF-8" standalone="no"?>
<svg
   xmlns:dc="http://purl.org/dc/elements/1.1/"
   xmlns:cc="http://creativecommons.org/ns#"
   xmlns:rdf="http://www.w3.org/1999/02/22-rdf-syntax-ns#"
   xmlns:svg="http://www.w3.org/2000/svg"
   xmlns="http://www.w3.org/2000/svg"
   xmlns:sodipodi="http://sodipodi.sourceforge.net/DTD/sodipodi-0.dtd"
   xmlns:inkscape="http://www.inkscape.org/namespaces/inkscape"
   version="1.0"
   width="16"
   height="16"
   id="svg2"
   sodipodi:version="0.32"
   inkscape:version="0.92.2 5c3e80d, 2017-08-06"
   sodipodi:docname="airplane_icon.svg"
   inkscape:output_extension="org.inkscape.output.svg.inkscape">
  <metadata
     id="metadata16">
    <rdf:RDF>
      <cc:Work
         rdf:about="">
        <dc:format>image/svg+xml</dc:format>
        <dc:type
           rdf:resource="http://purl.org/dc/dcmitype/StillImage" />
        <dc:title></dc:title>
      </cc:Work>
    </rdf:RDF>
  </metadata>
  <sodipodi:namedview
     inkscape:window-height="1006"
     inkscape:window-width="1920"
     inkscape:pageshadow="2"
     inkscape:pageopacity="0.0"
     guidetolerance="10.0"
     gridtolerance="10.0"
     objecttolerance="10.0"
     borderopacity="1.0"
     bordercolor="#666666"
     pagecolor="#ffffff"
     id="base"
     showgrid="false"
     inkscape:zoom="11.55"
     inkscape:cx="16.576935"
     inkscape:cy="10.772134"
     inkscape:window-x="0"
     inkscape:window-y="0"
     inkscape:current-layer="svg2"
     inkscape:window-maximized="1" />
  <defs
     id="defs4">
    <inkscape:perspective
       sodipodi:type="inkscape:persp3d"
       inkscape:vp_x="0 : 10 : 1"
       inkscape:vp_y="0 : 1000 : 0"
       inkscape:vp_z="20 : 10 : 1"
       inkscape:persp3d-origin="10 : 6.6666667 : 1"
       id="perspective18" />
    <filter
       id="filter">
      <feGaussianBlur
         stdDeviation="0.4858"
         id="feGaussianBlur7" />
    </filter>
  </defs>
  <path
     style="fill:#000000;stroke-width:0.89297307"
     id="path13"
     d="m 3.2694333,3.269433 c -0.060161,0.06016 -0.054365,0.1371004 0.1533714,0.585876 0.024519,0.052969 0.161039,0.2469281 0.161039,0.2469281 6e-7,-9e-7 -0.091697,0.1008986 -0.1165617,0.1257638 C 3.41921,4.2760729 3.397058,4.383949 3.41667,4.4687934 3.477514,4.732027 4.2113265,5.7818427 4.6221653,6.192682 4.8771194,6.447636 5.0085594,6.621805 4.9994576,6.692671 4.9917776,6.752471 4.8951814,7.009761 4.7847384,7.263212 4.5898666,7.710417 4.5168716,7.798389 2.318534,10.244744 c -1.7408787,1.937286 -2.2735588,2.56244 -2.3051651,2.703929 -0.087634,0.39231 0.2518318,0.756766 1.1288099,1.21163 l 0.452445,0.234657 c 0,0 6.5980163,-4.723823 6.5980163,-4.723823 l 3.9554359,3.004536 -0.09049,0.161039 c -0.04999,0.08827 -0.46333,0.603747 -0.918693,1.145681 -0.45536,0.541935 -0.833076,1.036594 -0.838938,1.09967 -0.02357,0.25357 0.991775,1.051125 1.144147,0.898752 0.240494,-0.240492 1.249249,-1.010103 1.334327,-1.018382 0.06074,-0.0059 0.927847,-0.667116 1.222366,-0.961635 0.294519,-0.294519 0.955725,-1.161624 0.961635,-1.222366 0.0083,-0.08508 0.77789,-1.093833 1.018383,-1.334328 0.152373,-0.152372 -0.645184,-1.167714 -0.898754,-1.144146 -0.06307,0.0059 -0.557732,0.383577 -1.099669,0.838938 -0.541933,0.455362 -1.057412,0.868703 -1.145681,0.918692 l -0.161038,0.09049 -3.0045368,-3.955436 c 0,0 4.7238238,-6.5980182 4.7238248,-6.5980182 L 14.160301,1.1421783 C 13.705437,0.2651995 13.340981,-0.0742659 12.948671,0.0133685 12.807182,0.044975 12.182029,0.577653 10.244743,2.3185328 7.7983869,4.5168702 7.7104157,4.5898649 7.2632127,4.7847371 7.0097615,4.8951801 6.7524753,4.9917746 6.6926719,4.9994571 6.6218062,5.0085577 6.4476382,4.8771169 6.1926832,4.622164 5.7818445,4.2113244 4.7320281,3.4775122 4.4687942,3.4166688 4.3839496,3.3970568 4.276075,3.4192083 4.228002,3.4672806 4.2031362,3.4921467 4.1037711,3.5823093 4.1037711,3.5823093 c 0,0 -0.193958,-0.1365206 -0.246927,-0.1610391 C 3.4080675,3.2135342 3.3295954,3.2092708 3.2694333,3.269433 Z"
     inkscape:connector-curvature="0" />
</svg>
