<?xml version="1.0" encoding="UTF-8" standalone="no"?>
<!-- Created with Inkscape (http://www.inkscape.org/) -->

<svg
   xmlns:dc="http://purl.org/dc/elements/1.1/"
   xmlns:cc="http://creativecommons.org/ns#"
   xmlns:rdf="http://www.w3.org/1999/02/22-rdf-syntax-ns#"
   xmlns:svg="http://www.w3.org/2000/svg"
   xmlns="http://www.w3.org/2000/svg"
   xmlns:sodipodi="http://sodipodi.sourceforge.net/DTD/sodipodi-0.dtd"
   xmlns:inkscape="http://www.inkscape.org/namespaces/inkscape"
   version="1.1"
   width="16"
   height="16"
   id="svg2"
   sodipodi:docname="ammo_icon.svg"
   inkscape:version="0.92.2 5c3e80d, 2017-08-06">
  <sodipodi:namedview
     pagecolor="#ffffff"
     bordercolor="#666666"
     borderopacity="1"
     objecttolerance="10"
     gridtolerance="10"
     guidetolerance="10"
     inkscape:pageopacity="0"
     inkscape:pageshadow="2"
     inkscape:window-width="1920"
     inkscape:window-height="1006"
     id="namedview12"
     showgrid="false"
     inkscape:zoom="13.906433"
     inkscape:cx="13.19143"
     inkscape:cy="19.301592"
     inkscape:window-x="0"
     inkscape:window-y="0"
     inkscape:window-maximized="1"
     inkscape:current-layer="svg2" />
  <defs
     id="defs4" />
  <metadata
     id="metadata7">
    <rdf:RDF>
      <cc:Work
         rdf:about="">
        <dc:format>image/svg+xml</dc:format>
        <dc:type
           rdf:resource="http://purl.org/dc/dcmitype/StillImage" />
        <dc:title></dc:title>
        <cc:license
           rdf:resource="http://creativecommons.org/publicdomain/zero/1.0/" />
      </cc:Work>
      <cc:License
         rdf:about="http://creativecommons.org/publicdomain/zero/1.0/">
        <cc:permits
           rdf:resource="http://creativecommons.org/ns#Reproduction" />
        <cc:permits
           rdf:resource="http://creativecommons.org/ns#Distribution" />
        <cc:permits
           rdf:resource="http://creativecommons.org/ns#DerivativeWorks" />
      </cc:License>
    </rdf:RDF>
  </metadata>
  <g
     id="g21"
     transform="matrix(0.34782609,0,0,0.34782609,-0.34782609,-0.28288466)">
    <path
       style="fill:#000000;fill-opacity:1;stroke:none"
       id="path3018"
       d="m 17.696899,4.0617061 c -0.751717,0 -1.131469,0.4828535 -1.131469,1.2156982 v 1.2634278 h 0.603637 V 8.3433223 H 9.7850342 c -6.5395574,0 -7.5388485,4.7047017 -7.5384522,6.8000487 l 0.00281,23.544678 C 2.2496012,39.813173 1,40.600036 1,40.600036 v 3.338257 h 46 v -3.338257 c 0,0 -1.249602,-0.786863 -1.24939,-1.911987 l 0.0028,-23.544678 C 45.753769,13.048024 44.754515,8.3433223 38.214958,8.3433223 H 30.830925 V 6.5408321 h 0.603637 V 5.2774043 c 0,-0.7328447 -0.379752,-1.2156982 -1.131469,-1.2156982 z m 3.922242,2.479126 h 4.761718 c 0.846172,0 1.328003,0.4075016 1.328003,1.1202392 v 0.682251 h -7.417724 v -0.682251 c 0,-0.7127376 0.481831,-1.1202392 1.328003,-1.1202392 z M 9.7850342,12.139221 H 38.214966 c 1.841093,0 3.189453,1.181464 3.189453,3.00415 v 22.486206 c 0,0.811364 -0.457489,1.302735 -1.153931,1.302735 H 7.7495117 c -0.6964421,0 -1.1539306,-0.491371 -1.1539306,-1.302735 V 15.143371 c 0,-1.822686 1.3483599,-3.00415 3.1894531,-3.00415 z"
       inkscape:connector-curvature="0" />
    <path
       style="fill:#000000;fill-opacity:1;fill-rule:evenodd;stroke:none"
       id="path3021"
       d="m 30.729191,32.95685 h 7.422532 v 3.819303 h -7.422532 z"
       inkscape:connector-curvature="0" />
    <path
       style="fill:#000000;fill-opacity:1;fill-rule:evenodd;stroke:none"
       id="rect3795"
       d="m 30.729191,31.209722 v -9.873303 c 0,-3.656779 3.711265,-8.044914 3.711265,-8.044914 0,0 3.711267,4.388135 3.711267,8.044914 v 9.873303 z"
       inkscape:connector-curvature="0" />
    <path
       style="fill:#000000;fill-opacity:1;fill-rule:evenodd;stroke:none"
       id="path3016"
       d="m 20.248931,32.95685 h 7.422532 v 3.819303 h -7.422532 z"
       inkscape:connector-curvature="0" />
    <path
       style="fill:#000000;fill-opacity:1;fill-rule:evenodd;stroke:none"
       id="use3799"
       d="m 20.248931,31.209722 v -9.873303 c 0,-3.656779 3.711266,-8.044914 3.711266,-8.044914 0,0 3.711266,4.388135 3.711266,8.044914 v 9.873303 z"
       inkscape:connector-curvature="0" />
    <path
       style="fill:#000000;fill-opacity:1;fill-rule:evenodd;stroke:none"
       id="path3012"
       d="m 9.7686691,32.95685 h 7.4225319 v 3.819303 H 9.7686691 Z"
       inkscape:connector-curvature="0" />
    <path
       style="fill:#000000;fill-opacity:1;fill-rule:evenodd;stroke:none"
       id="use3801"
       d="m 9.7686691,31.209722 v -9.873303 c 0,-3.656779 3.7112659,-8.044914 3.7112659,-8.044914 0,0 3.711266,4.388135 3.711266,8.044914 v 9.873303 z"
       inkscape:connector-curvature="0" />
  </g>
</svg>
