<?xml version="1.0" encoding="UTF-8" standalone="no"?>
<svg
   xmlns:dc="http://purl.org/dc/elements/1.1/"
   xmlns:cc="http://creativecommons.org/ns#"
   xmlns:rdf="http://www.w3.org/1999/02/22-rdf-syntax-ns#"
   xmlns:svg="http://www.w3.org/2000/svg"
   xmlns="http://www.w3.org/2000/svg"
   xmlns:sodipodi="http://sodipodi.sourceforge.net/DTD/sodipodi-0.dtd"
   xmlns:inkscape="http://www.inkscape.org/namespaces/inkscape"
   inkscape:export-ydpi="384"
   inkscape:export-xdpi="384"
   inkscape:export-filename="./armor_slope.png"
   inkscape:version="1.0.1 (3bc2e813f5, 2020-09-07)"
   sodipodi:docname="armor_slope.svg"
   id="svg9"
   height="16"
   width="16"
   version="1.1">
  <metadata
     id="metadata15">
    <rdf:RDF>
      <cc:Work
         rdf:about="">
        <dc:format>image/svg+xml</dc:format>
        <dc:type
           rdf:resource="http://purl.org/dc/dcmitype/StillImage" />
        <dc:title>Out of project scope icon (monochrome variant)</dc:title>
      </cc:Work>
    </rdf:RDF>
  </metadata>
  <defs
     id="defs13">
    <marker
       inkscape:isstock="true"
       style="overflow:visible;"
       id="Arrow2Mend"
       refX="0.0"
       refY="0.0"
       orient="auto"
       inkscape:stockid="Arrow2Mend">
      <path
         transform="scale(0.6) rotate(180) translate(0,0)"
         d="M 8.7185878,4.0337352 L -2.2072895,0.016013256 L 8.7185884,-4.0017078 C 6.9730900,-1.6296469 6.9831476,1.6157441 8.7185878,4.0337352 z "
         style="fill-rule:evenodd;stroke-width:0.625;stroke-linejoin:round;stroke:#000000;stroke-opacity:1;fill:#000000;fill-opacity:1"
         id="path946" />
    </marker>
    <marker
       inkscape:isstock="true"
       style="overflow:visible"
       id="Arrow2Mstart"
       refX="0.0"
       refY="0.0"
       orient="auto"
       inkscape:stockid="Arrow2Mstart">
      <path
         transform="scale(0.6) translate(0,0)"
         d="M 8.7185878,4.0337352 L -2.2072895,0.016013256 L 8.7185884,-4.0017078 C 6.9730900,-1.6296469 6.9831476,1.6157441 8.7185878,4.0337352 z "
         style="fill-rule:evenodd;stroke-width:0.625;stroke-linejoin:round;stroke:#000000;stroke-opacity:1;fill:#000000;fill-opacity:1"
         id="path943" />
    </marker>
    <marker
       inkscape:isstock="true"
       style="overflow:visible"
       id="Arrow2Sstart"
       refX="0.0"
       refY="0.0"
       orient="auto"
       inkscape:stockid="Arrow2Sstart">
      <path
         transform="scale(0.3) translate(-2.3,0)"
         d="M 8.7185878,4.0337352 L -2.2072895,0.016013256 L 8.7185884,-4.0017078 C 6.9730900,-1.6296469 6.9831476,1.6157441 8.7185878,4.0337352 z "
         style="fill-rule:evenodd;stroke-width:0.625;stroke-linejoin:round;stroke:#000000;stroke-opacity:1;fill:#000000;fill-opacity:1"
         id="path949" />
    </marker>
    <marker
       inkscape:isstock="true"
       style="overflow:visible;"
       id="Arrow1Send"
       refX="0.0"
       refY="0.0"
       orient="auto"
       inkscape:stockid="Arrow1Send">
      <path
         transform="scale(0.2) rotate(180) translate(6,0)"
         style="fill-rule:evenodd;stroke:#000000;stroke-width:1pt;stroke-opacity:1;fill:#000000;fill-opacity:1"
         d="M 0.0,0.0 L 5.0,-5.0 L -12.5,0.0 L 5.0,5.0 L 0.0,0.0 z "
         id="path934" />
    </marker>
    <marker
       inkscape:isstock="true"
       style="overflow:visible;"
       id="Arrow1Mend"
       refX="0.0"
       refY="0.0"
       orient="auto"
       inkscape:stockid="Arrow1Mend">
      <path
         transform="scale(0.4) rotate(180) translate(10,0)"
         style="fill-rule:evenodd;stroke:#000000;stroke-width:1pt;stroke-opacity:1;fill:#000000;fill-opacity:1"
         d="M 0.0,0.0 L 5.0,-5.0 L -12.5,0.0 L 5.0,5.0 L 0.0,0.0 z "
         id="path928" />
    </marker>
    <marker
       inkscape:isstock="true"
       style="overflow:visible"
       id="Arrow1Sstart"
       refX="0.0"
       refY="0.0"
       orient="auto"
       inkscape:stockid="Arrow1Sstart">
      <path
         transform="scale(0.2) translate(6,0)"
         style="fill-rule:evenodd;stroke:#000000;stroke-width:1pt;stroke-opacity:1;fill:#000000;fill-opacity:1"
         d="M 0.0,0.0 L 5.0,-5.0 L -12.5,0.0 L 5.0,5.0 L 0.0,0.0 z "
         id="path931" />
    </marker>
    <marker
       inkscape:isstock="true"
       style="overflow:visible"
       id="Arrow1Lstart"
       refX="0.0"
       refY="0.0"
       orient="auto"
       inkscape:stockid="Arrow1Lstart">
      <path
         transform="scale(0.8) translate(12.5,0)"
         style="fill-rule:evenodd;stroke:#000000;stroke-width:1pt;stroke-opacity:1;fill:#000000;fill-opacity:1"
         d="M 0.0,0.0 L 5.0,-5.0 L -12.5,0.0 L 5.0,5.0 L 0.0,0.0 z "
         id="path919" />
    </marker>
    <g
       id="g3092">
      <symbol
         id="symbol5751"
         overflow="visible">
        <path
           id="path7912"
           d=""
           style="stroke:none;" />
      </symbol>
      <symbol
         id="symbol5349"
         overflow="visible">
        <path
           id="path1705"
           d="M 4.75 -2.359375 C 4.75 -3.921875 3.828125 -4.40625 3.09375 -4.40625 C 1.71875 -4.40625 0.40625 -2.984375 0.40625 -1.578125 C 0.40625 -0.640625 1 0.109375 2.03125 0.109375 C 2.65625 0.109375 3.375 -0.125 4.125 -0.734375 C 4.25 -0.203125 4.578125 0.109375 5.03125 0.109375 C 5.5625 0.109375 5.875 -0.4375 5.875 -0.59375 C 5.875 -0.671875 5.8125 -0.703125 5.75 -0.703125 C 5.6875 -0.703125 5.65625 -0.671875 5.625 -0.59375 C 5.4375 -0.109375 5.078125 -0.109375 5.0625 -0.109375 C 4.75 -0.109375 4.75 -0.890625 4.75 -1.125 C 4.75 -1.328125 4.75 -1.359375 4.859375 -1.46875 C 5.796875 -2.65625 6 -3.8125 6 -3.8125 C 6 -3.84375 5.984375 -3.921875 5.875 -3.921875 C 5.78125 -3.921875 5.78125 -3.890625 5.734375 -3.703125 C 5.546875 -3.078125 5.21875 -2.328125 4.75 -1.734375 Z M 4.09375 -0.984375 C 3.203125 -0.21875 2.4375 -0.109375 2.046875 -0.109375 C 1.453125 -0.109375 1.140625 -0.5625 1.140625 -1.203125 C 1.140625 -1.6875 1.40625 -2.765625 1.71875 -3.265625 C 2.1875 -4 2.734375 -4.1875 3.078125 -4.1875 C 4.0625 -4.1875 4.0625 -2.875 4.0625 -2.109375 C 4.0625 -1.734375 4.0625 -1.15625 4.09375 -0.984375 Z M 4.09375 -0.984375 "
           style="stroke:none;" />
      </symbol>
    </g>
  </defs>
  <sodipodi:namedview
     inkscape:document-rotation="0"
     inkscape:current-layer="svg9"
     inkscape:window-maximized="1"
     inkscape:window-y="0"
     inkscape:window-x="0"
     inkscape:cy="18.564658"
     inkscape:cx="9.7720406"
     inkscape:zoom="10.429825"
     showgrid="false"
     id="namedview11"
     inkscape:window-height="1006"
     inkscape:window-width="1920"
     inkscape:pageshadow="2"
     inkscape:pageopacity="0"
     guidetolerance="10"
     gridtolerance="10"
     objecttolerance="10"
     borderopacity="1"
     bordercolor="#666666"
     pagecolor="#ffffff" />
  <title
     id="title2">Out of project scope icon (monochrome variant)</title>
  <g
     transform="matrix(0.86919126,0,0,0.86919126,0.30465868,-1.5927195)"
     style="stroke:#ffffff;stroke-width:0.2;stroke-miterlimit:4;stroke-dasharray:none;stroke-opacity:1"
     id="g868">
    <rect
       id="rect36"
       width="5.9261975"
       height="3.6625915"
       x="0.52733386"
       y="6.4057865"
       style="stroke:#ffffff;stroke-width:0.2;stroke-miterlimit:4;stroke-dasharray:none;stroke-opacity:1" />
    <path
       style="stroke:#ffffff;stroke-width:0.2;stroke-miterlimit:4;stroke-dasharray:none;stroke-opacity:1"
       d="M 6.9296271,6.4091667 V 10.066368 A 3.6625914,1.8312957 0 0 0 10.475577,8.2368847 3.6625914,1.8312957 0 0 0 6.9296271,6.4091667 Z"
       id="path38"
       inkscape:connector-curvature="0" />
  </g>
  <path
     sodipodi:nodetypes="cc"
     id="path837"
     d="M 3.8703069,15.263 14.23577,1.2384328"
     style="fill:none;stroke:#000000;stroke-width:1px;stroke-linecap:butt;stroke-linejoin:miter;stroke-opacity:1" />
  <path
     sodipodi:nodetypes="cc"
     id="path847"
     d="M 14.435513,2.9627155 V 15.263"
     style="fill:none;stroke:#000000;stroke-width:0.25;stroke-linecap:butt;stroke-linejoin:miter;stroke-miterlimit:4;stroke-dasharray:none;stroke-opacity:1" />
  <path
     sodipodi:nodetypes="cc"
     d="m 8.4623045,10.797411 c 1.5285874,1.546469 3.4033725,1.804957 5.4716695,1.747775"
     style="fill:none;stroke:#000000;stroke-width:0.25;stroke-linecap:square;stroke-miterlimit:4;stroke-dasharray:none;stroke-opacity:1;marker-start:url(#Arrow2Mstart);marker-end:url(#Arrow2Mend)"
     id="path849" />
</svg>
