<?xml version="1.0" encoding="UTF-8" standalone="no"?>
<!-- Generator: Adobe Illustrator 16.0.0, SVG Export Plug-In . SVG Version: 6.00 Build 0)  -->

<svg
   xmlns:dc="http://purl.org/dc/elements/1.1/"
   xmlns:cc="http://creativecommons.org/ns#"
   xmlns:rdf="http://www.w3.org/1999/02/22-rdf-syntax-ns#"
   xmlns:svg="http://www.w3.org/2000/svg"
   xmlns="http://www.w3.org/2000/svg"
   xmlns:sodipodi="http://sodipodi.sourceforge.net/DTD/sodipodi-0.dtd"
   xmlns:inkscape="http://www.inkscape.org/namespaces/inkscape"
   version="1.1"
   id="Capa_1"
   x="0px"
   y="0px"
   width="15.999999"
   height="16.000002"
   viewBox="0 0 15.999999 16.000002"
   xml:space="preserve"
   sodipodi:docname="clock_icon.svg"
   inkscape:version="0.92.2 5c3e80d, 2017-08-06"><metadata
     id="metadata41"><rdf:RDF><cc:Work
         rdf:about=""><dc:format>image/svg+xml</dc:format><dc:type
           rdf:resource="http://purl.org/dc/dcmitype/StillImage" /><dc:title></dc:title></cc:Work></rdf:RDF></metadata><defs
     id="defs39" /><sodipodi:namedview
     pagecolor="#ffffff"
     bordercolor="#666666"
     borderopacity="1"
     objecttolerance="10"
     gridtolerance="10"
     guidetolerance="10"
     inkscape:pageopacity="0"
     inkscape:pageshadow="2"
     inkscape:window-width="1920"
     inkscape:window-height="1006"
     id="namedview37"
     showgrid="false"
     inkscape:zoom="15.56433"
     inkscape:cx="2.0815562"
     inkscape:cy="7.1060517"
     inkscape:window-x="0"
     inkscape:window-y="0"
     inkscape:window-maximized="1"
     inkscape:current-layer="Capa_1"
     fit-margin-top="0"
     fit-margin-left="0"
     fit-margin-right="0"
     fit-margin-bottom="0" /><g
     id="g4"
     transform="matrix(0.03297541,0,0,0.03297528,-3.297541e-5,0)"><path
       d="M 242.607,0 C 108.629,0 0.001,108.628 0.001,242.606 c 0,133.976 108.628,242.606 242.606,242.606 133.978,0 242.604,-108.631 242.604,-242.606 C 485.212,108.628 376.585,0 242.607,0 Z m 15.164,454.116 v -29.557 h -30.327 v 29.557 C 122.519,446.658 38.561,362.697 31.098,257.772 H 60.652 V 227.445 H 31.098 C 38.561,122.517 122.519,38.559 227.444,31.096 V 60.65 h 30.327 V 31.097 c 104.926,7.462 188.882,91.421 196.344,196.349 h -29.552 v 30.327 h 29.552 c -7.463,104.924 -91.419,188.885 -196.344,196.343 z m 96.455,-275.953 c 2.072,3.615 0.83,8.266 -2.782,10.368 l -80.092,46.227 c 0.691,2.577 1.582,5.066 1.582,7.848 0,16.762 -13.581,30.324 -30.326,30.324 -16.75,0 -30.327,-13.562 -30.327,-30.324 l -82.299,-47.503 c -7.257,-4.203 -9.743,-13.474 -5.554,-20.729 4.174,-7.285 13.459,-9.771 20.715,-5.565 l 82.775,47.798 c 4.411,-2.487 9.239,-4.324 14.69,-4.324 8.471,0 16.092,3.494 21.604,9.122 l 79.648,-46.024 c 3.556,-2.104 8.204,-0.86 10.366,2.782 z"
       id="path2"
       inkscape:connector-curvature="0" /></g><g
     id="g6"
     transform="translate(-0.001,-469.212)" /><g
     id="g8"
     transform="translate(-0.001,-469.212)" /><g
     id="g10"
     transform="translate(-0.001,-469.212)" /><g
     id="g12"
     transform="translate(-0.001,-469.212)" /><g
     id="g14"
     transform="translate(-0.001,-469.212)" /><g
     id="g16"
     transform="translate(-0.001,-469.212)" /><g
     id="g18"
     transform="translate(-0.001,-469.212)" /><g
     id="g20"
     transform="translate(-0.001,-469.212)" /><g
     id="g22"
     transform="translate(-0.001,-469.212)" /><g
     id="g24"
     transform="translate(-0.001,-469.212)" /><g
     id="g26"
     transform="translate(-0.001,-469.212)" /><g
     id="g28"
     transform="translate(-0.001,-469.212)" /><g
     id="g30"
     transform="translate(-0.001,-469.212)" /><g
     id="g32"
     transform="translate(-0.001,-469.212)" /><g
     id="g34"
     transform="translate(-0.001,-469.212)" /></svg>