<?xml version="1.0" encoding="UTF-8" standalone="no"?>
<svg
   xmlns:dc="http://purl.org/dc/elements/1.1/"
   xmlns:cc="http://creativecommons.org/ns#"
   xmlns:rdf="http://www.w3.org/1999/02/22-rdf-syntax-ns#"
   xmlns:svg="http://www.w3.org/2000/svg"
   xmlns="http://www.w3.org/2000/svg"
   xmlns:sodipodi="http://sodipodi.sourceforge.net/DTD/sodipodi-0.dtd"
   xmlns:inkscape="http://www.inkscape.org/namespaces/inkscape"
   viewBox="0 -256 64 64"
   id="svg3001"
   version="1.1"
   inkscape:version="0.92.4 5da689c313, 2019-01-14"
   width="64"
   height="64"
   sodipodi:docname="download_icon.svg">
  <metadata
     id="metadata3011">
    <rdf:RDF>
      <cc:Work
         rdf:about="">
        <dc:format>image/svg+xml</dc:format>
        <dc:type
           rdf:resource="http://purl.org/dc/dcmitype/StillImage" />
        <dc:title></dc:title>
      </cc:Work>
    </rdf:RDF>
  </metadata>
  <defs
     id="defs3009" />
  <sodipodi:namedview
     pagecolor="#ffffff"
     bordercolor="#666666"
     borderopacity="1"
     objecttolerance="10"
     gridtolerance="10"
     guidetolerance="10"
     inkscape:pageopacity="0"
     inkscape:pageshadow="2"
     inkscape:window-width="1920"
     inkscape:window-height="1006"
     id="namedview3007"
     showgrid="false"
     inkscape:zoom="3.6203867"
     inkscape:cx="44.382923"
     inkscape:cy="6.0227042"
     inkscape:window-x="0"
     inkscape:window-y="0"
     inkscape:window-maximized="1"
     inkscape:current-layer="svg3001"
     units="px"
     fit-margin-top="0"
     fit-margin-left="0"
     fit-margin-right="0"
     fit-margin-bottom="0" />
  <g
     transform="matrix(0.03730913,0,0,-0.03730913,1.171875,-203.07244)"
     id="g3003">
    <path
       d="m 1339,729 q 17,-41 -14,-70 L 877,211 q -18,-19 -45,-19 -27,0 -45,19 L 339,659 q -31,29 -14,70 17,39 59,39 h 256 v 448 q 0,26 19,45 19,19 45,19 h 256 q 26,0 45,-19 19,-19 19,-45 V 768 h 256 q 42,0 59,-39 z m 293,-217 q 14,0 23,-9 9,-9 9,-23 V -96 q 0,-14 -9,-23 -9,-9 -23,-9 H 32 q -14,0 -23,9 -9,9 -9,23 v 576 q 0,14 9,23 9,9 23,9 h 192 q 14,0 23,-9 9,-9 9,-23 V 128 h 1152 v 352 q 0,14 9,23 9,9 23,9 z"
       id="path3005"
       inkscape:connector-curvature="0"
       style="fill:currentColor" />
  </g>
</svg>
