<?xml version="1.0" encoding="UTF-8" standalone="no"?>
<!-- Generator: Adobe Illustrator 16.0.0, SVG Export Plug-In . SVG Version: 6.00 Build 0)  -->

<svg
   xmlns:dc="http://purl.org/dc/elements/1.1/"
   xmlns:cc="http://creativecommons.org/ns#"
   xmlns:rdf="http://www.w3.org/1999/02/22-rdf-syntax-ns#"
   xmlns:svg="http://www.w3.org/2000/svg"
   xmlns="http://www.w3.org/2000/svg"
   xmlns:sodipodi="http://sodipodi.sourceforge.net/DTD/sodipodi-0.dtd"
   xmlns:inkscape="http://www.inkscape.org/namespaces/inkscape"
   version="1.1"
   id="Capa_1"
   x="0px"
   y="0px"
   width="16"
   height="16"
   viewBox="0 0 16 16"
   xml:space="preserve"
   sodipodi:docname="flag_icon.svg"
   inkscape:version="0.92.2 5c3e80d, 2017-08-06"><metadata
     id="metadata41"><rdf:RDF><cc:Work
         rdf:about=""><dc:format>image/svg+xml</dc:format><dc:type
           rdf:resource="http://purl.org/dc/dcmitype/StillImage" /><dc:title></dc:title></cc:Work></rdf:RDF></metadata><defs
     id="defs39" /><sodipodi:namedview
     pagecolor="#ffffff"
     bordercolor="#666666"
     borderopacity="1"
     objecttolerance="10"
     gridtolerance="10"
     guidetolerance="10"
     inkscape:pageopacity="0"
     inkscape:pageshadow="2"
     inkscape:window-width="1920"
     inkscape:window-height="1006"
     id="namedview37"
     showgrid="false"
     inkscape:zoom="22.011287"
     inkscape:cx="9.3127263"
     inkscape:cy="13.794035"
     inkscape:window-x="0"
     inkscape:window-y="0"
     inkscape:window-maximized="1"
     inkscape:current-layer="Capa_1" /><g
     id="g4"
     transform="matrix(0.03297528,0,0,0.03297528,-1.6159496e-4,-5.6152344e-6)"><path
       d="m 470.052,136.467 c -62.343,22.953 -109.84,39.299 -151.629,90.978 -37.229,46.05 -90.98,62.011 -151.628,31.657 V 424.559 H 136.466 V 15.163 C 136.465,6.781 143.247,0 151.628,0 c 8.38,0 15.166,6.781 15.166,15.163 33.67,48.953 92.189,59.795 151.628,60.653 90.976,1.33 151.63,60.651 151.63,60.651 z M 197.116,337.612 v 30.854 c 35.775,7.318 60.653,22.841 60.653,40.936 0,25.113 -47.534,45.49 -106.141,45.49 -58.609,0 -106.139,-20.377 -106.139,-45.495 0,-18.09 24.875,-33.612 60.649,-40.931 v -30.854 c -55.081,9.535 -90.978,36.249 -90.978,71.784 0,44.631 56.121,75.816 136.467,75.816 80.344,0 136.468,-31.186 136.468,-75.816 0.002,-35.535 -35.898,-62.249 -90.979,-71.784 z"
       id="path2"
       inkscape:connector-curvature="0" /></g><g
     id="g6"
     transform="translate(0,-469.21201)" /><g
     id="g8"
     transform="translate(0,-469.21201)" /><g
     id="g10"
     transform="translate(0,-469.21201)" /><g
     id="g12"
     transform="translate(0,-469.21201)" /><g
     id="g14"
     transform="translate(0,-469.21201)" /><g
     id="g16"
     transform="translate(0,-469.21201)" /><g
     id="g18"
     transform="translate(0,-469.21201)" /><g
     id="g20"
     transform="translate(0,-469.21201)" /><g
     id="g22"
     transform="translate(0,-469.21201)" /><g
     id="g24"
     transform="translate(0,-469.21201)" /><g
     id="g26"
     transform="translate(0,-469.21201)" /><g
     id="g28"
     transform="translate(0,-469.21201)" /><g
     id="g30"
     transform="translate(0,-469.21201)" /><g
     id="g32"
     transform="translate(0,-469.21201)" /><g
     id="g34"
     transform="translate(0,-469.21201)" /></svg>