<?xml version="1.0" encoding="UTF-8" standalone="no"?>
<!-- Created with Inkscape (http://www.inkscape.org/) -->

<svg
   xmlns:dc="http://purl.org/dc/elements/1.1/"
   xmlns:cc="http://creativecommons.org/ns#"
   xmlns:rdf="http://www.w3.org/1999/02/22-rdf-syntax-ns#"
   xmlns:svg="http://www.w3.org/2000/svg"
   xmlns="http://www.w3.org/2000/svg"
   xmlns:sodipodi="http://sodipodi.sourceforge.net/DTD/sodipodi-0.dtd"
   xmlns:inkscape="http://www.inkscape.org/namespaces/inkscape"
   width="16"
   height="15.999999"
   viewBox="0 0 4.2333333 4.2333332"
   version="1.1"
   id="svg8"
   inkscape:version="0.92.2 5c3e80d, 2017-08-06"
   sodipodi:docname="fuel_icon.svg"
   inkscape:export-filename="/home/pepe/Pictures/s44wiki/fuel_icon.png"
   inkscape:export-xdpi="96.000008"
   inkscape:export-ydpi="96.000008">
  <defs
     id="defs2" />
  <sodipodi:namedview
     id="base"
     pagecolor="#ffffff"
     bordercolor="#666666"
     borderopacity="1.0"
     inkscape:pageopacity="0.0"
     inkscape:pageshadow="2"
     inkscape:zoom="15.839192"
     inkscape:cx="-8.4422297"
     inkscape:cy="-0.99945383"
     inkscape:document-units="mm"
     inkscape:current-layer="layer1"
     showgrid="false"
     units="px"
     fit-margin-top="0"
     fit-margin-left="0"
     fit-margin-right="0"
     fit-margin-bottom="0"
     inkscape:window-width="1920"
     inkscape:window-height="1006"
     inkscape:window-x="0"
     inkscape:window-y="0"
     inkscape:window-maximized="1" />
  <metadata
     id="metadata5">
    <rdf:RDF>
      <cc:Work
         rdf:about="">
        <dc:format>image/svg+xml</dc:format>
        <dc:type
           rdf:resource="http://purl.org/dc/dcmitype/StillImage" />
        <dc:title></dc:title>
      </cc:Work>
    </rdf:RDF>
  </metadata>
  <g
     inkscape:label="Layer 1"
     inkscape:groupmode="layer"
     id="layer1"
     transform="translate(-67.013041,-179.74251)">
    <g
       id="g865"
       transform="matrix(0.05978907,0,0,0.05978907,68.16976,172.9761)">
      <path
         id="path830"
         transform="scale(0.26458333)"
         d="m 48.572266,428.23438 c -7.142858,0 -8.214291,-5.7e-4 -15,6.78515 -6.785726,6.78569 -44.642868,45.35772 -60,60.71485 0,0 -7.144532,5.71426 -7.144532,15 v 164.28515 c 0,7.49994 7.858271,19.82227 21.429688,19.82227 H 145.53516 c 15.17857,0 21.96484,-8.75056 21.96484,-21.96485 V 448.23438 c 0,-7.85715 -11.42829,-20 -24.64258,-20 z m 1.791015,15.97656 c 0.629617,0.0265 1.271003,0.14453 2.029297,0.14453 H 134.5957 c 4.79822,0 4.19846,5.01638 1.94727,7.26758 -2.2512,2.2512 -8.88059,8.87865 -10.26953,10.26757 -1.38898,1.38894 -3.52188,1.9629 -7.32227,1.9629 H 35.980469 c -2.272819,0 -3.724731,-3.42563 -1.767578,-5.38282 3.283011,-3.28293 10.290978,-10.29094 12.626953,-12.62695 1.459982,-1.45996 2.474078,-1.6759 3.523437,-1.63281 z m -37.507812,58.49804 c 0.48668,-0.013 0.97001,0.20899 1.27539,0.63672 l 22.902344,32.07813 c 2.306237,-1.38178 4.999376,-2.18946 7.894531,-2.18945 h 50.357422 c 3.047491,0 5.874444,0.88911 8.257814,2.4082 l 23.05859,-32.29688 c 0.48861,-0.68437 1.43282,-0.84212 2.11719,-0.35351 l 0.20508,0.14648 c 0.68437,0.48861 0.84212,1.43282 0.35351,2.11719 l -23.14648,32.41992 c -0.004,0.005 -0.008,0.009 -0.0117,0.0137 2.79602,2.77849 4.52344,6.63096 4.52344,10.90235 v 76.07031 c 0,3.7916 -1.36565,7.24848 -3.62696,9.92187 l 22.26172,31.18164 c 0.48861,0.68438 0.33086,1.62858 -0.35351,2.11719 l -0.20508,0.14649 c -0.68437,0.4886 -1.62858,0.33085 -2.11719,-0.35352 l -21.99804,-30.81055 c -2.58277,1.97213 -5.803467,3.1543 -9.318364,3.1543 H 44.927734 c -3.36253,0 -6.456859,-1.08102 -8.980468,-2.90039 l -21.816407,30.55664 c -0.488608,0.68437 -1.432817,0.84212 -2.117187,0.35352 l -0.205078,-0.14649 C 11.124223,667.3942 10.96647,666.45 11.455078,665.76562 L 33.490234,634.9043 c -2.430795,-2.71511 -3.917968,-6.29411 -3.917968,-10.24219 V 548.5918 c 0,-4.42468 1.861438,-8.3901 4.835937,-11.1875 L 11.455078,505.25586 c -0.488608,-0.68437 -0.330855,-1.62858 0.353516,-2.11719 l 0.205078,-0.14648 c 0.256639,-0.18323 0.549789,-0.27543 0.841797,-0.28321 z m 35.517578,33.66211 c -8.507857,0 -15.357422,6.84957 -15.357422,15.35743 v 69.20312 c 0,8.50786 6.849565,15.35742 15.357422,15.35742 h 43.369141 c 8.507852,0 15.357422,-6.84956 15.357422,-15.35742 v -69.20312 c 0,-8.50786 -6.84957,-15.35743 -15.357422,-15.35743 z"
         style="fill:#000000;fill-opacity:1;stroke:#000000;stroke-width:0.99999994px;stroke-linecap:butt;stroke-linejoin:miter;stroke-opacity:1"
         inkscape:connector-curvature="0" />
      <g
         transform="translate(-95.250005)"
         id="g838">
        <rect
           style="fill:#000000;fill-opacity:1;stroke:#000000;stroke-width:0.15875;stroke-linecap:round;stroke-linejoin:round;stroke-miterlimit:4;stroke-dasharray:none;stroke-opacity:1"
           id="rect832"
           width="11.094773"
           height="1.0613861"
           x="-29.521805"
           y="152.80219"
           transform="rotate(-45)"
           rx="0"
           ry="0" />
        <rect
           ry="0"
           rx="0"
           transform="rotate(-45)"
           y="146.82204"
           x="-29.488396"
           height="4.6361275"
           width="11.061364"
           id="rect834"
           style="fill:#000000;fill-opacity:1;stroke:#000000;stroke-width:0.15875;stroke-linecap:round;stroke-linejoin:round;stroke-miterlimit:4;stroke-dasharray:none;stroke-opacity:1" />
      </g>
    </g>
  </g>
</svg>
