<?xml version="1.0" encoding="UTF-8" standalone="no"?>
<!-- Generator: Adobe Illustrator 16.0.0, SVG Export Plug-In . SVG Version: 6.00 Build 0)  -->

<svg
   xmlns:dc="http://purl.org/dc/elements/1.1/"
   xmlns:cc="http://creativecommons.org/ns#"
   xmlns:rdf="http://www.w3.org/1999/02/22-rdf-syntax-ns#"
   xmlns:svg="http://www.w3.org/2000/svg"
   xmlns="http://www.w3.org/2000/svg"
   xmlns:sodipodi="http://sodipodi.sourceforge.net/DTD/sodipodi-0.dtd"
   xmlns:inkscape="http://www.inkscape.org/namespaces/inkscape"
   version="1.1"
   id="Capa_1"
   x="0px"
   y="0px"
   width="16"
   height="16"
   viewBox="0 0 16 16"
   xml:space="preserve"
   sodipodi:docname="reload_icon.svg"
   inkscape:version="0.92.2 5c3e80d, 2017-08-06"><metadata
     id="metadata53"><rdf:RDF><cc:Work
         rdf:about=""><dc:format>image/svg+xml</dc:format><dc:type
           rdf:resource="http://purl.org/dc/dcmitype/StillImage" /><dc:title></dc:title></cc:Work></rdf:RDF></metadata><defs
     id="defs51" /><sodipodi:namedview
     pagecolor="#ffffff"
     bordercolor="#666666"
     borderopacity="1"
     objecttolerance="10"
     gridtolerance="10"
     guidetolerance="10"
     inkscape:pageopacity="0"
     inkscape:pageshadow="2"
     inkscape:window-width="1920"
     inkscape:window-height="1006"
     id="namedview49"
     showgrid="false"
     inkscape:zoom="8.7625658"
     inkscape:cx="27.283716"
     inkscape:cy="1.49276"
     inkscape:window-x="0"
     inkscape:window-y="0"
     inkscape:window-maximized="1"
     inkscape:current-layer="Capa_1" /><g
     id="g18"
     transform="translate(0,-414.92401)" /><g
     id="g20"
     transform="translate(0,-414.92401)" /><g
     id="g22"
     transform="translate(0,-414.92401)" /><g
     id="g24"
     transform="translate(0,-414.92401)" /><g
     id="g26"
     transform="translate(0,-414.92401)" /><g
     id="g28"
     transform="translate(0,-414.92401)" /><g
     id="g30"
     transform="translate(0,-414.92401)" /><g
     id="g32"
     transform="translate(0,-414.92401)" /><g
     id="g34"
     transform="translate(0,-414.92401)" /><g
     id="g36"
     transform="translate(0,-414.92401)" /><g
     id="g38"
     transform="translate(0,-414.92401)" /><g
     id="g40"
     transform="translate(0,-414.92401)" /><g
     id="g42"
     transform="translate(0,-414.92401)" /><g
     id="g44"
     transform="translate(0,-414.92401)" /><g
     id="g46"
     transform="translate(0,-414.92401)" /><g
     transform="matrix(0,-0.49822035,0.49822035,0,0.92827895,11.248607)"
     id="g868"
     style="stroke:#ffffff;stroke-width:0.2;stroke-miterlimit:4;stroke-dasharray:none;stroke-opacity:1"><rect
       style="stroke:#ffffff;stroke-width:0.2;stroke-miterlimit:4;stroke-dasharray:none;stroke-opacity:1"
       y="6.4057865"
       x="0.52733386"
       height="3.6625915"
       width="5.9261975"
       id="rect36" /><path
       inkscape:connector-curvature="0"
       id="path38"
       d="M 6.9296271,6.4091667 V 10.066368 A 3.6625914,1.8312957 0 0 0 10.475577,8.2368847 3.6625914,1.8312957 0 0 0 6.9296271,6.4091667 Z"
       style="stroke:#ffffff;stroke-width:0.2;stroke-miterlimit:4;stroke-dasharray:none;stroke-opacity:1" /></g><g
     id="g16"
     transform="matrix(0.03614796,0,0,0.03614796,0.21946771,0.48797652)"
     style="fill:#000000;fill-opacity:1;stroke:#ffffff;stroke-width:11.24940395;stroke-miterlimit:4;stroke-dasharray:none;stroke-opacity:1"><g
       id="g14"
       style="fill:#000000;fill-opacity:1;stroke:#ffffff;stroke-width:11.24940395;stroke-miterlimit:4;stroke-dasharray:none;stroke-opacity:1"><path
         d="m 296.924,403.243 c -22.656,10.875 -47.5,17.813 -73.734,19.813 v -64.813 c 14.609,-1.625 28.672,-4.906 41.609,-10.594 z"
         id="path2"
         inkscape:connector-curvature="0"
         style="fill:#000000;fill-opacity:1;stroke:#ffffff;stroke-width:11.24940395;stroke-miterlimit:4;stroke-dasharray:none;stroke-opacity:1" /><path
         d="M 64.814,199.868 H 0.001 c 8.219,-107.219 97.906,-192 207.188,-192 64.297,0 124.735,30.094 163.797,79.969 l 59.812,-34.563 0.125,197.844 -171.406,-98.813 55.094,-31.875 C 287.549,90.117 248.612,71.867 207.19,71.867 133.251,71.868 72.876,128.055 64.814,199.868 Z"
         id="path4"
         inkscape:connector-curvature="0"
         style="fill:#000000;fill-opacity:1;stroke:#ffffff;stroke-width:11.24940395;stroke-miterlimit:4;stroke-dasharray:none;stroke-opacity:1" /><path
         d="m 322.674,301.024 56,32.312 c -14.531,21.156 -32.875,39.47 -54,54.031 l -32.314,-56 c 11.564,-8.562 21.751,-18.781 30.314,-30.343 z"
         id="path6"
         inkscape:connector-curvature="0"
         style="fill:#000000;fill-opacity:1;stroke:#ffffff;stroke-width:11.24940395;stroke-miterlimit:4;stroke-dasharray:none;stroke-opacity:1" /><path
         d="m 191.189,358.243 v 64.813 c -26.25,-2 -51.094,-8.938 -73.719,-19.813 l 32.094,-55.594 c 12.969,5.687 27.031,8.969 41.625,10.594 z"
         id="path8"
         inkscape:connector-curvature="0"
         style="fill:#000000;fill-opacity:1;stroke:#ffffff;stroke-width:11.24940395;stroke-miterlimit:4;stroke-dasharray:none;stroke-opacity:1" /><path
         d="m 122.033,331.368 -32.313,56 C 68.564,372.806 50.22,354.493 35.689,333.337 l 56,-32.312 c 8.562,11.561 18.75,21.78 30.344,30.343 z"
         id="path10"
         inkscape:connector-curvature="0"
         style="fill:#000000;fill-opacity:1;stroke:#ffffff;stroke-width:11.24940395;stroke-miterlimit:4;stroke-dasharray:none;stroke-opacity:1" /><path
         d="M 75.376,273.461 19.813,305.555 C 8.938,282.93 2,258.118 0,231.868 h 64.813 c 1.626,14.593 4.907,28.656 10.563,41.593 z"
         id="path12"
         inkscape:connector-curvature="0"
         style="fill:#000000;fill-opacity:1;stroke:#ffffff;stroke-width:11.24940395;stroke-miterlimit:4;stroke-dasharray:none;stroke-opacity:1" /></g></g><g
     style="stroke:#ffffff;stroke-width:0.2;stroke-miterlimit:4;stroke-dasharray:none;stroke-opacity:1"
     id="g874"
     transform="matrix(0,-0.49822035,0.49822035,0,3.1251243,11.248607)"><rect
       id="rect870"
       width="5.9261975"
       height="3.6625915"
       x="0.52733386"
       y="6.4057865"
       style="stroke:#ffffff;stroke-width:0.2;stroke-miterlimit:4;stroke-dasharray:none;stroke-opacity:1" /><path
       style="stroke:#ffffff;stroke-width:0.2;stroke-miterlimit:4;stroke-dasharray:none;stroke-opacity:1"
       d="M 6.9296271,6.4091667 V 10.066368 A 3.6625914,1.8312957 0 0 0 10.475577,8.2368847 3.6625914,1.8312957 0 0 0 6.9296271,6.4091667 Z"
       id="path872"
       inkscape:connector-curvature="0" /></g><g
     transform="matrix(0,-0.49822035,0.49822035,0,5.2649085,11.248607)"
     id="g880"
     style="stroke:#ffffff;stroke-width:0.2;stroke-miterlimit:4;stroke-dasharray:none;stroke-opacity:1"><rect
       style="stroke:#ffffff;stroke-width:0.2;stroke-miterlimit:4;stroke-dasharray:none;stroke-opacity:1"
       y="6.4057865"
       x="0.52733386"
       height="3.6625915"
       width="5.9261975"
       id="rect876" /><path
       inkscape:connector-curvature="0"
       id="path878"
       d="M 6.9296271,6.4091667 V 10.066368 A 3.6625914,1.8312957 0 0 0 10.475577,8.2368847 3.6625914,1.8312957 0 0 0 6.9296271,6.4091667 Z"
       style="stroke:#ffffff;stroke-width:0.2;stroke-miterlimit:4;stroke-dasharray:none;stroke-opacity:1" /></g></svg>