<?xml version="1.0" encoding="UTF-8" standalone="no"?>
<svg
   xmlns:dc="http://purl.org/dc/elements/1.1/"
   xmlns:cc="http://creativecommons.org/ns#"
   xmlns:rdf="http://www.w3.org/1999/02/22-rdf-syntax-ns#"
   xmlns:svg="http://www.w3.org/2000/svg"
   xmlns="http://www.w3.org/2000/svg"
   xmlns:sodipodi="http://sodipodi.sourceforge.net/DTD/sodipodi-0.dtd"
   xmlns:inkscape="http://www.inkscape.org/namespaces/inkscape"
   xml:space="preserve"
   enable-background="new 0 0 100 100"
   viewBox="0 0 16 16"
   height="16"
   width="16"
   y="0px"
   x="0px"
   version="1.1"
   id="svg14"
   sodipodi:docname="run_icon.svg"
   inkscape:version="0.92.2 5c3e80d, 2017-08-06"><metadata
     id="metadata20"><rdf:RDF><cc:Work
         rdf:about=""><dc:format>image/svg+xml</dc:format><dc:type
           rdf:resource="http://purl.org/dc/dcmitype/StillImage" /><dc:title></dc:title></cc:Work></rdf:RDF></metadata><defs
     id="defs18" /><sodipodi:namedview
     pagecolor="#ffffff"
     bordercolor="#666666"
     borderopacity="1"
     objecttolerance="10"
     gridtolerance="10"
     guidetolerance="10"
     inkscape:pageopacity="0"
     inkscape:pageshadow="2"
     inkscape:window-width="1920"
     inkscape:window-height="1006"
     id="namedview16"
     showgrid="false"
     inkscape:zoom="9.44"
     inkscape:cx="10.920372"
     inkscape:cy="25.556878"
     inkscape:window-x="0"
     inkscape:window-y="0"
     inkscape:window-maximized="1"
     inkscape:current-layer="svg14" /><g
     id="g28"
     transform="matrix(0.19224531,0,0,0.19224531,-1.4683697,-1.8292946)"><path
       id="path2"
       d="m 74.783,29.908 c 3.538,0 6.407,-2.875 6.407,-6.414 0,-3.54 -2.869,-6.412 -6.407,-6.412 -3.547,0 -6.42,2.873 -6.42,6.412 0,3.539 2.873,6.414 6.42,6.414 z"
       inkscape:connector-curvature="0" /><path
       id="path4"
       d="M 88.075,42.323 77.32,44.001 c -1.533,0.238 -3.146,-0.783 -3.581,-2.273 L 70.778,31.604 c -0.436,-1.489 -1.926,-3.28 -3.312,-3.979 L 52.781,20.21 c -1.386,-0.699 -3.753,-0.969 -5.261,-0.6 l -12.879,3.153 c -1.508,0.369 -2.741,1.814 -2.741,3.211 0,1.397 1.234,2.244 2.743,1.882 l 11.27,-2.702 c 1.51,-0.362 3.833,-0.005 5.164,0.792 l 3.649,2.185 c 1.332,0.797 1.335,2.107 0.007,2.912 l -11.298,6.84 c -1.327,0.805 -3.034,2.367 -3.793,3.475 -0.758,1.105 2.134,7.191 2.8,8.594 l 3.52,7.459 c 0.665,1.402 -0.061,2.59 -1.613,2.59 H 30.057 c -1.552,0 -2.719,1.225 -2.591,2.771 l 0.183,1.816 c 0.126,1.548 1.5,2.412 3.053,2.412 h 24.89 c 1.551,0 2.37,-0.807 1.82,-2.258 L 53.053,53.455 C 52.501,52.004 51.703,49.69 51.28,48.198 L 51.134,47.731 C 50.71,46.238 51.46,44.399 52.8,43.618 l 7.84,-4.561 c 1.34,-0.782 3.139,-1.759 3.998,-2.179 0.857,-0.419 1.907,0.462 2.332,1.956 l 2.686,9.426 c 0.424,1.493 2.014,2.447 3.53,2.119 l 14.921,-3.23 c 1.516,-0.329 2.758,-1.646 2.758,-2.929 0,-1.283 -1.257,-2.136 -2.79,-1.897 z"
       inkscape:connector-curvature="0" /><path
       id="path6"
       d="M 47.489,69 H 41.47 c -1.553,0 -3.858,0.557 -5.125,1.455 l -7.062,4.919 c -1.266,0.897 -1.566,2.622 -0.668,3.889 l 1.398,1.948 c 0.899,1.266 2.628,1.499 3.842,0.533 L 48.103,70.585 C 49.317,69.619 49.041,69 47.489,69 Z"
       inkscape:connector-curvature="0" /><path
       id="path8"
       d="m 40.143,35 c 1.552,0 2.822,-0.51 2.822,-1 0,-0.49 -1.271,-1 -2.822,-1 H 10.46 c -1.552,0 -2.822,0.51 -2.822,1 0,0.49 1.271,1 2.822,1 z"
       inkscape:connector-curvature="0" /><path
       id="path10"
       d="m 38.644,38 c 0,-0.49 -1.271,-1 -2.822,-1 h -21.91 c -1.553,0 -2.822,0.51 -2.822,1 0,0.49 1.27,1 2.822,1 h 21.909 c 1.552,0 2.823,-0.51 2.823,-1 z"
       inkscape:connector-curvature="0" /><path
       id="path12"
       d="m 37.214,42 c 0,-0.489 -1.27,-1 -2.821,-1 H 16.21 c -1.553,0 -2.823,0.511 -2.823,1 0,0.49 1.271,1 2.823,1 h 18.183 c 1.551,0 2.821,-0.51 2.821,-1 z"
       inkscape:connector-curvature="0" /></g></svg>